<?xml version="1.0" encoding="UTF-8" standalone="no"?>
<!-- Created with Inkscape (http://www.inkscape.org/) -->

<svg
   width="10in"
   height="10in"
   viewBox="0 0 254 254"
   version="1.1"
   id="svg890"
   inkscape:version="1.1.2 (0a00cf5339, 2022-02-04)"
   sodipodi:docname="8WA.svg"
   xmlns:inkscape="http://www.inkscape.org/namespaces/inkscape"
   xmlns:sodipodi="http://sodipodi.sourceforge.net/DTD/sodipodi-0.dtd"
   xmlns="http://www.w3.org/2000/svg"
   xmlns:svg="http://www.w3.org/2000/svg">
  <sodipodi:namedview
     id="namedview892"
     pagecolor="#ffffff"
     bordercolor="#666666"
     borderopacity="1.0"
     inkscape:pageshadow="2"
     inkscape:pageopacity="0.0"
     inkscape:pagecheckerboard="0"
     inkscape:document-units="mm"
     showgrid="false"
     units="in"
     width="10in"
     inkscape:zoom="0.69664703"
     inkscape:cx="530.39773"
     inkscape:cy="481.59252"
     inkscape:window-width="1850"
     inkscape:window-height="1016"
     inkscape:window-x="0"
     inkscape:window-y="0"
     inkscape:window-maximized="1"
     inkscape:current-layer="layer1" />
  <defs
     id="defs887" />
  <g
     inkscape:label="Layer 1"
     inkscape:groupmode="layer"
     id="layer1">
    <g
       id="g53691"
       inkscape:export-filename="/home/ns/Desktop/GIT/N8X/assets/8WA.png"
       inkscape:export-xdpi="50.799995"
       inkscape:export-ydpi="50.799995"
       transform="matrix(4.0637051,0,0,4.0637051,114.15207,-1016.3801)">
      <rect
         style="fill:none;stroke-width:10;stroke-linecap:round;stroke-linejoin:round;paint-order:fill markers stroke"
         id="rect53472-5"
         width="60.788021"
         height="60.788021"
         x="-27.245882"
         y="251.09372" />
      <path
         id="path25317-7-4-0-6-0-0-4-3-67-6-6-2-9"
         style="font-weight:bold;font-size:40.871px;line-height:1.25;font-family:Sansation;-inkscape-font-specification:'Sansation Bold';fill:#f9f9f9;stroke-width:0.214952"
         d="m -2.6609717,262.58994 -12.8189903,12.82001 v 0.002 l 4.24633,4.24429 6.6345803,-6.63355 -1.10644,12.1627 10e-4,0.001 1.27666,1.27667 0.2092,0.20919 1.25616,1.25616 5.06053,-0.46042 v -5.45532 l -2.08779,0.20099 1.48381,-15.4677 -4.15405,-4.15507 z m 11.91968,12.457 -5.06053,0.46043 v 5.45532 l 2.08779,-0.20098 -1.48381,15.46769 4.15405,4.15507 10e-4,10e-4 12.8189897,-12.82002 v -0.002 l -4.24634,-4.24429 -6.63458,6.63356 1.10645,-12.16271 -10e-4,-10e-4 -1.27667,-1.27667 -0.20919,-0.20919 z m 15.7681397,0.77524 -3.96331,3.96331 4.24634,4.24634 3.96228,-3.96332 z m -44.04047,3.12143 -3.96228,3.96331 4.2453,4.24634 3.96332,-3.96332 z" />
    </g>
  </g>
</svg>
